<?xml version="1.0" encoding="UTF-8"?>
<svg xmlns="http://www.w3.org/2000/svg" xmlns:xlink="http://www.w3.org/1999/xlink" version="1.1" viewBox="0 0 1000 1000">
  <defs>
    <style>
      .cls-1 {
        fill: url(#linear-gradient-3);
      }

      .cls-2 {
        fill: url(#linear-gradient-2);
      }

      .cls-3 {
        fill: url(#linear-gradient);
      }

      .cls-4 {
        fill: #ffce07;
      }
    </style>
    <linearGradient id="linear-gradient" x1="1040.72" y1="1209.49" x2="-233.76" y2="231.3" gradientUnits="userSpaceOnUse">
      <stop offset="0" stop-color="#0e1e31"/>
      <stop offset=".03" stop-color="#0d2033"/>
      <stop offset=".45" stop-color="#063b59"/>
      <stop offset=".79" stop-color="#014c71"/>
      <stop offset="1" stop-color="#00537a"/>
    </linearGradient>
    <linearGradient id="linear-gradient-2" x1="1110.02" y1="1119.2" x2="-164.46" y2="141.02" xlink:href="#linear-gradient"/>
    <linearGradient id="linear-gradient-3" x1="1299.35" y1="872.52" x2="24.88" y2="-105.67" xlink:href="#linear-gradient"/>
  </defs>
  <!-- Generator: Adobe Illustrator 28.6.0, SVG Export Plug-In . SVG Version: 1.2.0 Build 709)  -->
  <g>
    <g id="Layer_1">
      <path class="cls-3" d="M472.6,505.94l-13.23-7.64-13.55-7.83-13.23-7.63-13.56-7.83-13.22-7.63-13.56-7.83-13.22-7.64-13.55-7.82-13.24-7.64-13.55-7.83-13.23-7.64-13.55-7.82-13.23-7.64-13.55-7.82-13.23-7.64-13.56-7.83-13.22-7.63-13.55-7.83-13.23-7.63-13.55-7.83-13.23-7.63-13.56-7.83-13.22-7.63-13.56-7.83-13.22-7.64-13.55-7.82-13.24-7.64-13.55-7.83h0c-5.88-3.4-13.22.84-13.22,7.63v443.42c0,3.15,1.68,6.06,4.41,7.63l8.9,5.14,13.47,7.78,13.31,7.69,13.48,7.78,13.3,7.68.26.15c5.88,3.39,13.22-.85,13.22-7.63v-154.92c0-6.78,7.34-11.03,13.22-7.63h0s13.56,7.83,13.56,7.83l13.23,7.64,13.55,7.82,13.23,7.64,13.55,7.82,26.78,15.46,13.23,7.64,13.55,7.82,13.23,7.64,13.55,7.82,13.23,7.64,13.55,7.83,13.23,7.63,13.56,7.83,13.22,7.64,9.15,5.28c2.73,1.57,4.41,4.48,4.41,7.64v175.28c0,3.15,1.68,6.06,4.41,7.63l8.9,5.14,13.47,7.78,13.3,7.68,13.48,7.78,13.31,7.68.25.14c5.88,3.39,13.22-.85,13.22-7.63v-443.41c0-3.15-1.68-6.06-4.41-7.63l-9.14-5.28ZM311.91,598.71l-13.23-7.64-13.55-7.82-13.23-7.64-13.56-7.83-8.81-5.09c-2.73-1.57-4.41-4.48-4.41-7.63v-72.42c0-6.79,7.35-11.03,13.22-7.63h0s13.55,7.82,13.55,7.82l13.23,7.64,13.55,7.83,13.23,7.64,9.14,5.28c2.73,1.57,4.41,4.48,4.41,7.63v72.42c0,6.78-7.34,11.03-13.22,7.63l-.33-.19Z"/>
      <path class="cls-4" d="M325.46,518.85v72.4c0,6.79-7.35,11.03-13.23,7.64l-.32-.19-13.23-7.64-13.55-7.82-13.23-7.64-13.56-7.83-8.81-5.08c-2.73-1.58-4.41-4.49-4.41-7.64v-72.41c0-6.79,7.35-11.03,13.23-7.64h0s13.55,7.82,13.55,7.82l13.23,7.64,13.55,7.83,13.23,7.64,9.14,5.27c2.73,1.58,4.41,4.49,4.41,7.64Z"/>
      <path class="cls-4" d="M325.46,699.3v169.9c0,6.91-7.48,11.23-13.47,7.78h0s-13.31-7.68-13.31-7.68l-13.48-7.78-13.3-7.69-13.47-7.78-8.92-5.15c-2.72-1.57-4.39-4.47-4.39-7.61v-180.38l13.22,7.64,13.56,7.82,13.23,7.64,13.55,7.82,13.23,7.64,13.55,7.82Z"/>
      <path class="cls-2" d="M914.65,668v72.42c0,3.15-1.68,6.06-4.41,7.63l-9.15,5.29-13.22,7.63-13.56,7.83-13.22,7.63-13.56,7.83-13.22,7.64-13.56,7.83-13.22,7.63-13.56,7.83-13.23,7.64-13.55,7.82-13.23,7.64-13.55,7.82-13.23,7.64-13.55,7.82-13.23,7.64-13.56,7.83-13.22,7.63-13.56,7.83-13.22,7.63-13.55,7.83-13.23,7.63-13.56,7.83-13.22,7.64-13.56,7.82-13.23,7.64-13.55,7.82-13.23,7.65-13.55,7.82h0c-5.88,3.4-13.22-.84-13.22-7.63v-443.51c0-3.15,1.68-6.06,4.41-7.63l8.81-5.09,13.56-7.83,13.22-7.64,13.56-7.82,13.23-7.64.34-.2c5.88-3.39,13.22.85,13.22,7.63v340.56c0,6.78,7.34,11.03,13.22,7.63h0s13.56-7.83,13.56-7.83l13.22-7.63,13.56-7.83,13.22-7.63,13.56-7.83,13.22-7.64,13.56-7.82,13.23-7.64,13.55-7.82,13.23-7.64,13.55-7.83,13.23-7.63,13.55-7.83,13.22-7.63,13.57-7.83,13.22-7.64,13.56-7.83,13.22-7.63,13.56-7.83,13.22-7.63,13.56-7.83,13.23-7.64.33-.19c5.88-3.39,13.22.85,13.22,7.63Z"/>
      <path class="cls-1" d="M820.67,304.91l68.17-39.36c5.45-3.15,5.45-11.01,0-14.15L503.46,28.99c-2.53-1.46-5.64-1.46-8.16,0l-76.35,43.98-148.43,85.7c-5.45,3.15-5.45,11.01,0,14.15l296.87,171.39c5.45,3.14,5.45,11.01,0,14.15l-64,36.95c-2.53,1.46-5.64,1.46-8.17,0L182.01,214.49c-2.53-1.46-5.65-1.46-8.18,0l-63.94,36.99c-5.44,3.15-5.44,11.01,0,14.15l385.31,222.45c2.53,1.46,5.64,1.46,8.17,0l224.69-129.72c5.45-3.15,5.45-11.01,0-14.15l-296.87-171.39c-5.45-3.15-5.45-11.01,0-14.15l68.09-39.31"/>
    </g>
  </g>
</svg>